# xmcd CD database file generated by Grip 3.0.0
# 
# Track frame offsets:
#       150
#       10975
#       22658
#       35630
#       53735
#       63651
#       68724
#       86163
#       99441
#       109563
#       122526
#       129868
#       143307
#       155333
#       174295
#       187955
# 
# Disc length: 2676 seconds
# 
# Revision: 1
# Processed by: cddbd v1.5.1PL0 Copyright (c) Steve Scherf et al.
# Submitted via: Grip 3.0.0
# 
DISCID=bd0a7210
DTITLE=Jack Johnson - On and On
DYEAR=2003
DGENRE=Terror
TTITLE0=Times Like These
TTITLE1=The Horizon has been Defeated
TTITLE2=Traffic in the Sky
TTITLE3=Taylor
TTITLE4=Gone
TTITLE5=Cupid
TTITLE6=Wasting Time
TTITLE7=Holes to Heaven
TTITLE8=Dreams be Dreams
TTITLE9=Tomorrow Morning
TTITLE10=Fall Line
TTITLE11=Cookie Jar
TTITLE12=Rodeo Clowns
TTITLE13=Cocoon
TTITLE14=Mediocre Bad Guys
TTITLE15=Symbol in my Driveway
EXTD=
EXTT0=
EXTT1=
EXTT2=
EXTT3=
EXTT4=
EXTT5=
EXTT6=
EXTT7=
EXTT8=
EXTT9=
EXTT10=
EXTT11=
EXTT12=
EXTT13=
EXTT14=
EXTT15=
PLAYORDER=
